<?xml version="1.0" encoding="UTF-8" standalone="no"?>
<!DOCTYPE svg PUBLIC "-//W3C//DTD SVG 1.1//EN"
 "http://www.w3.org/Graphics/SVG/1.1/DTD/svg11.dtd">
<!-- Generated by graphviz version 2.43.0 (0)
 -->
<!-- Title: PairInstance Pages: 1 -->
<svg width="1875pt" height="739pt"
 viewBox="0.00 0.00 1874.50 739.49" xmlns="http://www.w3.org/2000/svg" xmlns:xlink="http://www.w3.org/1999/xlink">
<g id="graph0" class="graph" transform="scale(1 1) rotate(0) translate(4 735.49)">
<title>PairInstance</title>
<polygon fill="white" stroke="transparent" points="-4,4 -4,-735.49 1870.5,-735.49 1870.5,4 -4,4"/>
<text text-anchor="middle" x="933.25" y="-716.29" font-family="Times,serif" font-size="14.00">Pair Instance</text>
<g id="clust1" class="cluster">
<title>cluster0</title>
<polygon fill="none" stroke="black" points="757.5,-560.09 757.5,-700.49 1078.5,-700.49 1078.5,-560.09 757.5,-560.09"/>
<text text-anchor="middle" x="918" y="-685.29" font-family="Times,serif" font-size="14.00">Legend</text>
</g>
<g id="clust2" class="cluster">
<title>cluster1</title>
<polygon fill="none" stroke="black" points="1454.5,-278.09 1454.5,-440.09 1698.5,-440.09 1698.5,-278.09 1454.5,-278.09"/>
<text text-anchor="middle" x="1576.5" y="-424.89" font-family="Times,serif" font-size="14.00">Environment</text>
</g>
<!-- Pod -->
<g id="node1" class="node">
<title>Pod</title>
<polygon fill="none" stroke="black" points="1070.5,-636.79 1016.5,-636.79 1016.5,-600.79 1070.5,-600.79 1070.5,-636.79"/>
<text text-anchor="middle" x="1043.5" y="-615.09" font-family="Times,serif" font-size="14.00">Pod</text>
</g>
<!-- Container -->
<g id="node2" class="node">
<title>Container</title>
<ellipse fill="none" stroke="black" cx="941.5" cy="-618.79" rx="56.59" ry="18"/>
<text text-anchor="middle" x="941.5" y="-615.09" font-family="Times,serif" font-size="14.00">Container</text>
</g>
<!-- External -->
<g id="node3" class="node">
<title>External</title>
<ellipse fill="none" stroke="black" cx="816.5" cy="-618.79" rx="50.89" ry="50.89"/>
<polyline fill="none" stroke="black" points="850.03,-656.81 782.97,-656.81 "/>
<polyline fill="none" stroke="black" points="850.03,-580.77 782.97,-580.77 "/>
<text text-anchor="middle" x="816.5" y="-615.09" font-family="Times,serif" font-size="14.00">External</text>
</g>
<!-- Environment -->
<g id="node4" class="node">
<title>Environment</title>
<ellipse fill="none" stroke="black" cx="1619.5" cy="-391.09" rx="71.49" ry="18"/>
<text text-anchor="middle" x="1619.5" y="-387.39" font-family="Times,serif" font-size="14.00">Environment</text>
</g>
<!-- EnvironmentExporter -->
<g id="node5" class="node">
<title>EnvironmentExporter</title>
<ellipse fill="none" stroke="black" cx="1576.5" cy="-304.09" rx="114.28" ry="18"/>
<text text-anchor="middle" x="1576.5" y="-300.39" font-family="Times,serif" font-size="14.00">Environment exporter</text>
</g>
<!-- Environment&#45;&gt;EnvironmentExporter -->
<g id="edge1" class="edge">
<title>Environment&#45;&gt;EnvironmentExporter</title>
<path fill="none" stroke="black" d="M1669.03,-371.52C1683.57,-363.17 1693.46,-352.42 1684.5,-340.09 1677.02,-329.81 1666.46,-322.49 1654.84,-317.29"/>
<polygon fill="black" stroke="black" points="1667.33,-368.46 1660.04,-376.15 1670.53,-374.68 1667.33,-368.46"/>
</g>
<!-- RevealMultiplex -->
<g id="node15" class="node">
<title>RevealMultiplex</title>
<polygon fill="none" stroke="black" points="1846,-322.09 1709,-322.09 1709,-286.09 1846,-286.09 1846,-322.09"/>
<text text-anchor="middle" x="1777.5" y="-300.39" font-family="Times,serif" font-size="14.00">Reveal Multiplex</text>
</g>
<!-- Environment&#45;&gt;RevealMultiplex -->
<g id="edge16" class="edge">
<title>Environment&#45;&gt;RevealMultiplex</title>
<path fill="none" stroke="black" d="M1651.53,-374.84C1663.81,-368.86 1677.89,-361.82 1690.5,-355.09 1706.95,-346.33 1724.85,-336.15 1740.11,-327.28"/>
<polygon fill="black" stroke="black" points="1741.89,-330.29 1748.76,-322.23 1738.36,-324.25 1741.89,-330.29"/>
<text text-anchor="middle" x="1791.5" y="-343.89" font-family="Times,serif" font-size="14.00">Drives presentations</text>
</g>
<!-- EnvironmentExposer -->
<g id="node6" class="node">
<title>EnvironmentExposer</title>
<polygon fill="none" stroke="black" points="1339.5,-409.09 1169.5,-409.09 1169.5,-373.09 1339.5,-373.09 1339.5,-409.09"/>
<text text-anchor="middle" x="1254.5" y="-387.39" font-family="Times,serif" font-size="14.00">Environment exposer</text>
</g>
<!-- EnvironmentExposer&#45;&gt;EnvironmentExporter -->
<g id="edge2" class="edge">
<title>EnvironmentExposer&#45;&gt;EnvironmentExporter</title>
<path fill="none" stroke="black" d="M1237.59,-372.85C1229.42,-362.45 1223.04,-349.45 1231.5,-340.09 1246.64,-323.34 1362.53,-314.2 1455.88,-309.51"/>
<polygon fill="black" stroke="black" points="1456.17,-313 1465.99,-309.01 1455.83,-306.01 1456.17,-313"/>
<text text-anchor="middle" x="1456" y="-343.89" font-family="Times,serif" font-size="14.00">Create Service and Ingress resources from listening processes</text>
</g>
<!-- PowerDNS -->
<g id="node7" class="node">
<title>PowerDNS</title>
<polygon fill="none" stroke="black" points="394.5,-235.09 300.5,-235.09 300.5,-199.09 394.5,-199.09 394.5,-235.09"/>
<text text-anchor="middle" x="347.5" y="-213.39" font-family="Times,serif" font-size="14.00">PowerDNS</text>
</g>
<!-- PowerDNSDB -->
<g id="node8" class="node">
<title>PowerDNSDB</title>
<polygon fill="none" stroke="black" points="407.5,-135.55 287.5,-135.55 287.5,-99.55 407.5,-99.55 407.5,-135.55"/>
<text text-anchor="middle" x="347.5" y="-113.85" font-family="Times,serif" font-size="14.00">PowerDNS DB</text>
</g>
<!-- PowerDNS&#45;&gt;PowerDNSDB -->
<g id="edge5" class="edge">
<title>PowerDNS&#45;&gt;PowerDNSDB</title>
<path fill="none" stroke="black" d="M347.5,-198.66C347.5,-184.09 347.5,-163.06 347.5,-146.2"/>
<polygon fill="black" stroke="black" points="351,-145.84 347.5,-135.84 344,-145.84 351,-145.84"/>
</g>
<!-- Web -->
<g id="node19" class="node">
<title>Web</title>
<ellipse fill="none" stroke="black" cx="755.5" cy="-117.55" rx="30.59" ry="30.59"/>
<polyline fill="none" stroke="black" points="775.7,-140.46 735.3,-140.46 "/>
<polyline fill="none" stroke="black" points="775.7,-94.64 735.3,-94.64 "/>
<text text-anchor="middle" x="755.5" y="-113.85" font-family="Times,serif" font-size="14.00">Web</text>
</g>
<!-- PowerDNS&#45;&gt;Web -->
<g id="edge18" class="edge">
<title>PowerDNS&#45;&gt;Web</title>
<path fill="none" stroke="black" d="M394.7,-204.81C475.84,-185.41 640.31,-146.09 715.89,-128.02"/>
<polygon fill="black" stroke="black" points="717.03,-131.34 725.94,-125.61 715.4,-124.54 717.03,-131.34"/>
<text text-anchor="middle" x="648" y="-169.89" font-family="Times,serif" font-size="14.00">Serves public DNS records</text>
</g>
<!-- LocalPathProvisioner -->
<g id="node14" class="node">
<title>LocalPathProvisioner</title>
<polygon fill="none" stroke="black" points="433.5,-36 261.5,-36 261.5,0 433.5,0 433.5,-36"/>
<text text-anchor="middle" x="347.5" y="-14.3" font-family="Times,serif" font-size="14.00">local&#45;path&#45;provisioner</text>
</g>
<!-- PowerDNSDB&#45;&gt;LocalPathProvisioner -->
<g id="edge15" class="edge">
<title>PowerDNSDB&#45;&gt;LocalPathProvisioner</title>
<path fill="none" stroke="black" d="M347.5,-99.11C347.5,-84.54 347.5,-63.51 347.5,-46.65"/>
<polygon fill="black" stroke="black" points="351,-46.29 347.5,-36.29 344,-46.29 351,-46.29"/>
<text text-anchor="middle" x="414" y="-57.8" font-family="Times,serif" font-size="14.00">Provisions storage</text>
</g>
<!-- ExternalDNS -->
<g id="node9" class="node">
<title>ExternalDNS</title>
<polygon fill="none" stroke="black" points="111,-322.09 0,-322.09 0,-286.09 111,-286.09 111,-322.09"/>
<text text-anchor="middle" x="55.5" y="-300.39" font-family="Times,serif" font-size="14.00">ExternalDNS</text>
</g>
<!-- ExternalDNS&#45;&gt;PowerDNS -->
<g id="edge6" class="edge">
<title>ExternalDNS&#45;&gt;PowerDNS</title>
<path fill="none" stroke="black" d="M56.47,-285.66C58.05,-274.64 61.97,-261.02 71.5,-253.09 103.76,-226.27 219.31,-219.74 290.28,-218.31"/>
<polygon fill="black" stroke="black" points="290.47,-221.8 300.41,-218.13 290.35,-214.8 290.47,-221.8"/>
<text text-anchor="middle" x="158.5" y="-256.89" font-family="Times,serif" font-size="14.00">Configures DNS records</text>
</g>
<!-- CertManager -->
<g id="node10" class="node">
<title>CertManager</title>
<polygon fill="none" stroke="black" points="457.5,-322.09 341.5,-322.09 341.5,-286.09 457.5,-286.09 457.5,-322.09"/>
<text text-anchor="middle" x="399.5" y="-300.39" font-family="Times,serif" font-size="14.00">Cert&#45;Manager</text>
</g>
<!-- CertManager&#45;&gt;PowerDNS -->
<g id="edge7" class="edge">
<title>CertManager&#45;&gt;PowerDNS</title>
<path fill="none" stroke="black" d="M341.35,-296.53C305.59,-291.15 264.56,-282.11 253.5,-268.09 238.65,-249.27 262.98,-236.68 290.6,-228.85"/>
<polygon fill="black" stroke="black" points="291.66,-232.19 300.45,-226.27 289.89,-225.42 291.66,-232.19"/>
<text text-anchor="middle" x="389.5" y="-256.89" font-family="Times,serif" font-size="14.00">Validates wildcard LetsEncrypt dns01</text>
</g>
<!-- NginxIngressController -->
<g id="node11" class="node">
<title>NginxIngressController</title>
<polygon fill="none" stroke="black" points="1107.5,-235.09 905.5,-235.09 905.5,-199.09 1107.5,-199.09 1107.5,-235.09"/>
<text text-anchor="middle" x="1006.5" y="-213.39" font-family="Times,serif" font-size="14.00">NGINX Ingress Controller</text>
</g>
<!-- CertManager&#45;&gt;NginxIngressController -->
<g id="edge11" class="edge">
<title>CertManager&#45;&gt;NginxIngressController</title>
<path fill="none" stroke="black" d="M457.74,-292.03C479.7,-286.56 504.44,-278.78 525.5,-268.09 535.09,-263.23 534.48,-257 544.5,-253.09 606.1,-229.06 779.14,-221.46 895.07,-219.1"/>
<polygon fill="black" stroke="black" points="895.47,-222.59 905.4,-218.9 895.34,-215.59 895.47,-222.59"/>
<text text-anchor="middle" x="686" y="-256.89" font-family="Times,serif" font-size="14.00">Provides TLS for Ingresses served here</text>
</g>
<!-- NginxIngressController&#45;&gt;Web -->
<g id="edge19" class="edge">
<title>NginxIngressController&#45;&gt;Web</title>
<path fill="none" stroke="black" d="M962.49,-198.99C914.55,-180.36 838.66,-150.87 793.31,-133.24"/>
<polygon fill="black" stroke="black" points="794.43,-129.92 783.84,-129.56 791.9,-136.45 794.43,-129.92"/>
<text text-anchor="middle" x="983" y="-169.89" font-family="Times,serif" font-size="14.00">Serves public traffic</text>
</g>
<!-- GoHttpServer -->
<g id="node12" class="node">
<title>GoHttpServer</title>
<polygon fill="none" stroke="black" points="1217,-517.09 1084,-517.09 1084,-481.09 1217,-481.09 1217,-517.09"/>
<text text-anchor="middle" x="1150.5" y="-495.39" font-family="Times,serif" font-size="14.00">Go&#45;HTTP&#45;Server</text>
</g>
<!-- GoHttpServer&#45;&gt;Environment -->
<g id="edge3" class="edge">
<title>GoHttpServer&#45;&gt;Environment</title>
<path fill="none" stroke="black" d="M1217.2,-483.02C1308.27,-462.44 1470.26,-425.83 1558.34,-405.92"/>
<polygon fill="black" stroke="black" points="1559.21,-409.31 1568.19,-403.69 1557.66,-402.48 1559.21,-409.31"/>
<text text-anchor="middle" x="1480.5" y="-451.89" font-family="Times,serif" font-size="14.00">Serve the ~/public_html folder</text>
</g>
<!-- GoHttpServer&#45;&gt;NginxIngressController -->
<g id="edge9" class="edge">
<title>GoHttpServer&#45;&gt;NginxIngressController</title>
<path fill="none" stroke="black" d="M1149.36,-481C1145.63,-437.66 1130.2,-322.01 1069.5,-253.09 1065.53,-248.58 1060.83,-244.53 1055.81,-240.93"/>
<polygon fill="black" stroke="black" points="1057.43,-237.81 1047.14,-235.28 1053.61,-243.67 1057.43,-237.81"/>
<text text-anchor="middle" x="1148" y="-343.89" font-family="Times,serif" font-size="14.00">Serves</text>
</g>
<!-- HelmOperator -->
<g id="node13" class="node">
<title>HelmOperator</title>
<polygon fill="none" stroke="black" points="1212.5,-636.79 1088.5,-636.79 1088.5,-600.79 1212.5,-600.79 1212.5,-636.79"/>
<text text-anchor="middle" x="1150.5" y="-615.09" font-family="Times,serif" font-size="14.00">Helm Operator</text>
</g>
<!-- HelmOperator&#45;&gt;NginxIngressController -->
<g id="edge12" class="edge">
<title>HelmOperator&#45;&gt;NginxIngressController</title>
<path fill="none" stroke="black" d="M1131.73,-600.4C1104.05,-573.94 1055.5,-524.12 1055.5,-500.09 1055.5,-500.09 1055.5,-500.09 1055.5,-303.09 1055.5,-280.02 1053.15,-273.01 1041.5,-253.09 1039.35,-249.42 1036.73,-245.86 1033.89,-242.51"/>
<polygon fill="black" stroke="black" points="1036.37,-240.04 1027,-235.1 1031.25,-244.81 1036.37,-240.04"/>
<text text-anchor="middle" x="1084.5" y="-387.39" font-family="Times,serif" font-size="14.00">Deploys</text>
</g>
<!-- HelmOperator&#45;&gt;GoHttpServer -->
<g id="edge14" class="edge">
<title>HelmOperator&#45;&gt;GoHttpServer</title>
<path fill="none" stroke="black" d="M1150.5,-600.68C1150.5,-581.5 1150.5,-550.14 1150.5,-527.53"/>
<polygon fill="black" stroke="black" points="1154,-527.23 1150.5,-517.23 1147,-527.23 1154,-527.23"/>
<text text-anchor="middle" x="1179.5" y="-538.89" font-family="Times,serif" font-size="14.00">Deploys</text>
</g>
<!-- KubePrometheus -->
<g id="node16" class="node">
<title>KubePrometheus</title>
<polygon fill="none" stroke="black" points="1458,-517.09 1235,-517.09 1235,-481.09 1458,-481.09 1458,-517.09"/>
<text text-anchor="middle" x="1346.5" y="-495.39" font-family="Times,serif" font-size="14.00">Prometheus + Grafana stack</text>
</g>
<!-- HelmOperator&#45;&gt;KubePrometheus -->
<g id="edge13" class="edge">
<title>HelmOperator&#45;&gt;KubePrometheus</title>
<path fill="none" stroke="black" d="M1179,-600.68C1213.4,-580.02 1271.35,-545.22 1309.26,-522.46"/>
<polygon fill="black" stroke="black" points="1311.19,-525.38 1317.97,-517.23 1307.59,-519.38 1311.19,-525.38"/>
<text text-anchor="middle" x="1311.5" y="-538.89" font-family="Times,serif" font-size="14.00">Deploys</text>
</g>
<!-- RevealMultiplex&#45;&gt;NginxIngressController -->
<g id="edge10" class="edge">
<title>RevealMultiplex&#45;&gt;NginxIngressController</title>
<path fill="none" stroke="black" d="M1731.96,-286.02C1722.34,-282.95 1712.18,-280.1 1702.5,-278.09 1499,-236.02 1256.13,-223.39 1117.75,-219.64"/>
<polygon fill="black" stroke="black" points="1117.65,-216.13 1107.56,-219.37 1117.46,-223.13 1117.65,-216.13"/>
<text text-anchor="middle" x="1671" y="-256.89" font-family="Times,serif" font-size="14.00">Serves</text>
</g>
<!-- MetalLB -->
<g id="node17" class="node">
<title>MetalLB</title>
<polygon fill="none" stroke="black" points="944,-322.09 867,-322.09 867,-286.09 944,-286.09 944,-322.09"/>
<text text-anchor="middle" x="905.5" y="-300.39" font-family="Times,serif" font-size="14.00">MetalLB</text>
</g>
<!-- MetalLB&#45;&gt;PowerDNS -->
<g id="edge4" class="edge">
<title>MetalLB&#45;&gt;PowerDNS</title>
<path fill="none" stroke="black" d="M881.54,-286C862.11,-272.29 837.07,-255.02 831.5,-253.09 754.18,-226.33 515.57,-220.03 404.93,-218.55"/>
<polygon fill="black" stroke="black" points="404.67,-215.05 394.63,-218.42 404.58,-222.05 404.67,-215.05"/>
<text text-anchor="middle" x="896.5" y="-256.89" font-family="Times,serif" font-size="14.00">Provides IP</text>
</g>
<!-- MetalLB&#45;&gt;NginxIngressController -->
<g id="edge8" class="edge">
<title>MetalLB&#45;&gt;NginxIngressController</title>
<path fill="none" stroke="black" d="M923.07,-285.94C933.42,-276.05 946.92,-263.55 959.5,-253.09 964.11,-249.26 969.09,-245.34 974.02,-241.57"/>
<polygon fill="black" stroke="black" points="976.32,-244.22 982.21,-235.42 972.11,-238.63 976.32,-244.22"/>
<text text-anchor="middle" x="1000.5" y="-256.89" font-family="Times,serif" font-size="14.00">Provides IP</text>
</g>
<!-- Kubed -->
<g id="node18" class="node">
<title>Kubed</title>
<polygon fill="none" stroke="black" points="430.5,-409.09 368.5,-409.09 368.5,-373.09 430.5,-373.09 430.5,-409.09"/>
<text text-anchor="middle" x="399.5" y="-387.39" font-family="Times,serif" font-size="14.00">Kubed</text>
</g>
<!-- Kubed&#45;&gt;CertManager -->
<g id="edge17" class="edge">
<title>Kubed&#45;&gt;CertManager</title>
<path fill="none" stroke="black" d="M399.5,-372.89C399.5,-361.26 399.5,-345.64 399.5,-332.33"/>
<polygon fill="black" stroke="black" points="403,-332.27 399.5,-322.27 396,-332.27 403,-332.27"/>
<text text-anchor="middle" x="528" y="-343.89" font-family="Times,serif" font-size="14.00">Syncs TLS certs across namespaces</text>
</g>
</g>
</svg>
