<?xml version="1.0" encoding="UTF-8" standalone="no"?>
<!DOCTYPE svg PUBLIC "-//W3C//DTD SVG 1.1//EN"
 "http://www.w3.org/Graphics/SVG/1.1/DTD/svg11.dtd">
<!-- Generated by graphviz version 2.43.0 (0)
 -->
<!-- Title: PairInstance Pages: 1 -->
<svg width="2133pt" height="739pt"
 viewBox="0.00 0.00 2133.00 739.49" xmlns="http://www.w3.org/2000/svg" xmlns:xlink="http://www.w3.org/1999/xlink">
<g id="graph0" class="graph" transform="scale(1 1) rotate(0) translate(4 735.49)">
<title>PairInstance</title>
<polygon fill="white" stroke="transparent" points="-4,4 -4,-735.49 2129,-735.49 2129,4 -4,4"/>
<text text-anchor="middle" x="1062.5" y="-716.29" font-family="Times,serif" font-size="14.00">Pair Instance</text>
<g id="clust1" class="cluster">
<title>cluster0</title>
<polygon fill="none" stroke="black" points="891.5,-560.09 891.5,-700.49 1212.5,-700.49 1212.5,-560.09 891.5,-560.09"/>
<text text-anchor="middle" x="1052" y="-685.29" font-family="Times,serif" font-size="14.00">Legend</text>
</g>
<g id="clust2" class="cluster">
<title>cluster1</title>
<polygon fill="none" stroke="black" points="1536.5,-278.09 1536.5,-440.09 1780.5,-440.09 1780.5,-278.09 1536.5,-278.09"/>
<text text-anchor="middle" x="1658.5" y="-424.89" font-family="Times,serif" font-size="14.00">Environment</text>
</g>
<!-- Pod -->
<g id="node1" class="node">
<title>Pod</title>
<polygon fill="none" stroke="black" points="1204.5,-636.79 1150.5,-636.79 1150.5,-600.79 1204.5,-600.79 1204.5,-636.79"/>
<text text-anchor="middle" x="1177.5" y="-615.09" font-family="Times,serif" font-size="14.00">Pod</text>
</g>
<!-- Container -->
<g id="node2" class="node">
<title>Container</title>
<ellipse fill="none" stroke="black" cx="1075.5" cy="-618.79" rx="56.59" ry="18"/>
<text text-anchor="middle" x="1075.5" y="-615.09" font-family="Times,serif" font-size="14.00">Container</text>
</g>
<!-- External -->
<g id="node3" class="node">
<title>External</title>
<ellipse fill="none" stroke="black" cx="950.5" cy="-618.79" rx="50.89" ry="50.89"/>
<polyline fill="none" stroke="black" points="984.03,-656.81 916.97,-656.81 "/>
<polyline fill="none" stroke="black" points="984.03,-580.77 916.97,-580.77 "/>
<text text-anchor="middle" x="950.5" y="-615.09" font-family="Times,serif" font-size="14.00">External</text>
</g>
<!-- Environment -->
<g id="node4" class="node">
<title>Environment</title>
<ellipse fill="#00cdcd" stroke="#00cdcd" cx="1701.5" cy="-391.09" rx="71.49" ry="18"/>
<text text-anchor="middle" x="1701.5" y="-387.39" font-family="Times,serif" font-size="14.00" fill="white">Environment</text>
</g>
<!-- EnvironmentExporter -->
<g id="node5" class="node">
<title>EnvironmentExporter</title>
<ellipse fill="none" stroke="black" cx="1658.5" cy="-304.09" rx="114.28" ry="18"/>
<text text-anchor="middle" x="1658.5" y="-300.39" font-family="Times,serif" font-size="14.00">Environment exporter</text>
</g>
<!-- Environment&#45;&gt;EnvironmentExporter -->
<g id="edge1" class="edge">
<title>Environment&#45;&gt;EnvironmentExporter</title>
<path fill="none" stroke="black" d="M1751.03,-371.52C1765.57,-363.17 1775.46,-352.42 1766.5,-340.09 1759.02,-329.81 1748.46,-322.49 1736.84,-317.29"/>
<polygon fill="black" stroke="black" points="1749.33,-368.46 1742.04,-376.15 1752.53,-374.68 1749.33,-368.46"/>
</g>
<!-- RevealMultiplex -->
<g id="node15" class="node">
<title>RevealMultiplex</title>
<polygon fill="none" stroke="black" points="1928,-322.09 1791,-322.09 1791,-286.09 1928,-286.09 1928,-322.09"/>
<text text-anchor="middle" x="1859.5" y="-300.39" font-family="Times,serif" font-size="14.00">Reveal Multiplex</text>
</g>
<!-- Environment&#45;&gt;RevealMultiplex -->
<g id="edge18" class="edge">
<title>Environment&#45;&gt;RevealMultiplex</title>
<path fill="none" stroke="black" d="M1733.53,-374.84C1745.81,-368.86 1759.89,-361.82 1772.5,-355.09 1788.95,-346.33 1806.85,-336.15 1822.11,-327.28"/>
<polygon fill="black" stroke="black" points="1823.89,-330.29 1830.76,-322.23 1820.36,-324.25 1823.89,-330.29"/>
<text text-anchor="middle" x="1873.5" y="-343.89" font-family="Times,serif" font-size="14.00">Drives presentations</text>
</g>
<!-- EnvironmentExposer -->
<g id="node6" class="node">
<title>EnvironmentExposer</title>
<polygon fill="none" stroke="black" points="1442.5,-409.09 1272.5,-409.09 1272.5,-373.09 1442.5,-373.09 1442.5,-409.09"/>
<text text-anchor="middle" x="1357.5" y="-387.39" font-family="Times,serif" font-size="14.00">Environment exposer</text>
</g>
<!-- EnvironmentExposer&#45;&gt;EnvironmentExporter -->
<g id="edge2" class="edge">
<title>EnvironmentExposer&#45;&gt;EnvironmentExporter</title>
<path fill="none" stroke="black" d="M1327.43,-372.87C1314.24,-363.19 1303.73,-350.9 1313.5,-340.09 1328.64,-323.34 1444.53,-314.2 1537.88,-309.51"/>
<polygon fill="black" stroke="black" points="1538.17,-313 1547.99,-309.01 1537.83,-306.01 1538.17,-313"/>
<text text-anchor="middle" x="1538" y="-343.89" font-family="Times,serif" font-size="14.00">Create Service and Ingress resources from listening processes</text>
</g>
<!-- PowerDNS -->
<g id="node7" class="node">
<title>PowerDNS</title>
<polygon fill="none" stroke="black" points="900.5,-235.09 806.5,-235.09 806.5,-199.09 900.5,-199.09 900.5,-235.09"/>
<text text-anchor="middle" x="853.5" y="-213.39" font-family="Times,serif" font-size="14.00">PowerDNS</text>
</g>
<!-- PowerDNSDB -->
<g id="node8" class="node">
<title>PowerDNSDB</title>
<polygon fill="none" stroke="black" points="989.5,-135.55 869.5,-135.55 869.5,-99.55 989.5,-99.55 989.5,-135.55"/>
<text text-anchor="middle" x="929.5" y="-113.85" font-family="Times,serif" font-size="14.00">PowerDNS DB</text>
</g>
<!-- PowerDNS&#45;&gt;PowerDNSDB -->
<g id="edge5" class="edge">
<title>PowerDNS&#45;&gt;PowerDNSDB</title>
<path fill="none" stroke="black" d="M867.09,-198.66C878.98,-183.4 896.39,-161.04 909.81,-143.82"/>
<polygon fill="black" stroke="black" points="912.65,-145.88 916.03,-135.84 907.12,-141.57 912.65,-145.88"/>
</g>
<!-- Web -->
<g id="node21" class="node">
<title>Web</title>
<ellipse fill="none" stroke="black" cx="1073.5" cy="-117.55" rx="30.59" ry="30.59"/>
<polyline fill="none" stroke="black" points="1093.7,-140.46 1053.3,-140.46 "/>
<polyline fill="none" stroke="black" points="1093.7,-94.64 1053.3,-94.64 "/>
<text text-anchor="middle" x="1073.5" y="-113.85" font-family="Times,serif" font-size="14.00">Web</text>
</g>
<!-- PowerDNS&#45;&gt;Web -->
<g id="edge21" class="edge">
<title>PowerDNS&#45;&gt;Web</title>
<path fill="none" stroke="black" d="M872.66,-199.01C887.25,-186.32 906.33,-170.48 915.5,-166.09 949.55,-149.81 962.38,-159.05 998.5,-148.09 1010.95,-144.32 1024.25,-139.39 1036.14,-134.64"/>
<polygon fill="black" stroke="black" points="1037.81,-137.74 1045.74,-130.72 1035.16,-131.26 1037.81,-137.74"/>
<text text-anchor="middle" x="1012" y="-169.89" font-family="Times,serif" font-size="14.00">Serves public DNS records</text>
</g>
<!-- LocalPathProvisioner -->
<g id="node14" class="node">
<title>LocalPathProvisioner</title>
<polygon fill="none" stroke="black" points="1828.5,-36 1656.5,-36 1656.5,0 1828.5,0 1828.5,-36"/>
<text text-anchor="middle" x="1742.5" y="-14.3" font-family="Times,serif" font-size="14.00">local&#45;path&#45;provisioner</text>
</g>
<!-- PowerDNSDB&#45;&gt;LocalPathProvisioner -->
<g id="edge16" class="edge">
<title>PowerDNSDB&#45;&gt;LocalPathProvisioner</title>
<path fill="none" stroke="black" d="M982.5,-99.49C998.72,-94.81 1016.71,-90.16 1033.5,-87 1250.3,-46.16 1509.27,-29.21 1646.34,-22.7"/>
<polygon fill="black" stroke="black" points="1646.57,-26.19 1656.4,-22.23 1646.24,-19.2 1646.57,-26.19"/>
<text text-anchor="middle" x="1312" y="-57.8" font-family="Times,serif" font-size="14.00">Provisions storage</text>
</g>
<!-- ExternalDNS -->
<g id="node9" class="node">
<title>ExternalDNS</title>
<polygon fill="none" stroke="black" points="111,-322.09 0,-322.09 0,-286.09 111,-286.09 111,-322.09"/>
<text text-anchor="middle" x="55.5" y="-300.39" font-family="Times,serif" font-size="14.00">ExternalDNS</text>
</g>
<!-- ExternalDNS&#45;&gt;PowerDNS -->
<g id="edge6" class="edge">
<title>ExternalDNS&#45;&gt;PowerDNS</title>
<path fill="none" stroke="black" d="M55.11,-285.98C55.85,-274.8 58.88,-260.88 68.5,-253.09 96.7,-230.27 620.25,-221.21 796.3,-218.8"/>
<polygon fill="black" stroke="black" points="796.45,-222.3 806.4,-218.66 796.35,-215.3 796.45,-222.3"/>
<text text-anchor="middle" x="155.5" y="-256.89" font-family="Times,serif" font-size="14.00">Configures DNS records</text>
</g>
<!-- CertManager -->
<g id="node10" class="node">
<title>CertManager</title>
<polygon fill="none" stroke="black" points="457.5,-322.09 341.5,-322.09 341.5,-286.09 457.5,-286.09 457.5,-322.09"/>
<text text-anchor="middle" x="399.5" y="-300.39" font-family="Times,serif" font-size="14.00">Cert&#45;Manager</text>
</g>
<!-- CertManager&#45;&gt;PowerDNS -->
<g id="edge7" class="edge">
<title>CertManager&#45;&gt;PowerDNS</title>
<path fill="none" stroke="black" d="M341.39,-300.47C288.87,-296.09 223.99,-284.37 253.5,-253.09 271.94,-233.55 649.42,-222.79 796,-219.34"/>
<polygon fill="black" stroke="black" points="796.23,-222.83 806.15,-219.1 796.07,-215.84 796.23,-222.83"/>
<text text-anchor="middle" x="389.5" y="-256.89" font-family="Times,serif" font-size="14.00">Validates wildcard LetsEncrypt dns01</text>
</g>
<!-- ContourIngressController -->
<g id="node11" class="node">
<title>ContourIngressController</title>
<polygon fill="none" stroke="black" points="1254,-235.09 1045,-235.09 1045,-199.09 1254,-199.09 1254,-235.09"/>
<text text-anchor="middle" x="1149.5" y="-213.39" font-family="Times,serif" font-size="14.00">Contour Ingress Controller</text>
</g>
<!-- CertManager&#45;&gt;ContourIngressController -->
<g id="edge13" class="edge">
<title>CertManager&#45;&gt;ContourIngressController</title>
<path fill="none" stroke="black" d="M457.63,-288.44C479.12,-282.63 503.58,-275.56 525.5,-268.09 542.3,-262.38 545.18,-256.94 562.5,-253.09 637.88,-236.36 832.43,-239.82 909.5,-235.09 950.43,-232.58 995.27,-229.5 1035,-226.65"/>
<polygon fill="black" stroke="black" points="1035.26,-230.14 1044.98,-225.93 1034.75,-223.16 1035.26,-230.14"/>
<text text-anchor="middle" x="704" y="-256.89" font-family="Times,serif" font-size="14.00">Provides TLS for Ingresses served here</text>
</g>
<!-- ContourIngressController&#45;&gt;Web -->
<g id="edge22" class="edge">
<title>ContourIngressController&#45;&gt;Web</title>
<path fill="none" stroke="black" d="M1137.04,-198.81C1129.96,-189.11 1120.86,-176.83 1112.5,-166.09 1108.27,-160.66 1103.69,-154.95 1099.21,-149.44"/>
<polygon fill="black" stroke="black" points="1101.82,-147.1 1092.78,-141.58 1096.4,-151.53 1101.82,-147.1"/>
<text text-anchor="middle" x="1196" y="-169.89" font-family="Times,serif" font-size="14.00">Serves public traffic</text>
</g>
<!-- GoHttpServer -->
<g id="node12" class="node">
<title>GoHttpServer</title>
<polygon fill="none" stroke="black" points="1435,-517.09 1302,-517.09 1302,-481.09 1435,-481.09 1435,-517.09"/>
<text text-anchor="middle" x="1368.5" y="-495.39" font-family="Times,serif" font-size="14.00">Go&#45;HTTP&#45;Server</text>
</g>
<!-- GoHttpServer&#45;&gt;Environment -->
<g id="edge3" class="edge">
<title>GoHttpServer&#45;&gt;Environment</title>
<path fill="none" stroke="black" d="M1422,-481.06C1484.57,-461.15 1587.43,-428.4 1649.39,-408.68"/>
<polygon fill="black" stroke="black" points="1650.5,-412 1658.97,-405.63 1648.38,-405.33 1650.5,-412"/>
<text text-anchor="middle" x="1634.5" y="-451.89" font-family="Times,serif" font-size="14.00">Serve the ~/public_html folder</text>
</g>
<!-- GoHttpServer&#45;&gt;ContourIngressController -->
<g id="edge10" class="edge">
<title>GoHttpServer&#45;&gt;ContourIngressController</title>
<path fill="none" stroke="black" d="M1321.28,-480.99C1301.1,-471.62 1278.73,-458.17 1263.5,-440.09 1206.79,-372.82 1251.23,-323.54 1198.5,-253.09 1195.37,-248.91 1191.59,-245.03 1187.55,-241.49"/>
<polygon fill="black" stroke="black" points="1189.53,-238.59 1179.52,-235.11 1185.17,-244.07 1189.53,-238.59"/>
<text text-anchor="middle" x="1254" y="-343.89" font-family="Times,serif" font-size="14.00">Serves</text>
</g>
<!-- HelmOperator -->
<g id="node13" class="node">
<title>HelmOperator</title>
<polygon fill="none" stroke="black" points="1346.5,-636.79 1222.5,-636.79 1222.5,-600.79 1346.5,-600.79 1346.5,-636.79"/>
<text text-anchor="middle" x="1284.5" y="-615.09" font-family="Times,serif" font-size="14.00">Helm Operator</text>
</g>
<!-- HelmOperator&#45;&gt;GoHttpServer -->
<g id="edge15" class="edge">
<title>HelmOperator&#45;&gt;GoHttpServer</title>
<path fill="none" stroke="black" d="M1296.71,-600.68C1310.84,-580.89 1334.21,-548.13 1350.44,-525.4"/>
<polygon fill="black" stroke="black" points="1353.31,-527.4 1356.27,-517.23 1347.61,-523.34 1353.31,-527.4"/>
<text text-anchor="middle" x="1369.5" y="-538.89" font-family="Times,serif" font-size="14.00">Deploys</text>
</g>
<!-- KubePrometheus -->
<g id="node16" class="node">
<title>KubePrometheus</title>
<polygon fill="none" stroke="black" points="1284,-517.09 1061,-517.09 1061,-481.09 1284,-481.09 1284,-517.09"/>
<text text-anchor="middle" x="1172.5" y="-495.39" font-family="Times,serif" font-size="14.00">Prometheus + Grafana stack</text>
</g>
<!-- HelmOperator&#45;&gt;KubePrometheus -->
<g id="edge14" class="edge">
<title>HelmOperator&#45;&gt;KubePrometheus</title>
<path fill="none" stroke="black" d="M1268.21,-600.68C1249.14,-580.63 1217.39,-547.27 1195.73,-524.51"/>
<polygon fill="black" stroke="black" points="1198.23,-522.06 1188.81,-517.23 1193.16,-526.89 1198.23,-522.06"/>
<text text-anchor="middle" x="1246.5" y="-538.89" font-family="Times,serif" font-size="14.00">Deploys</text>
</g>
<!-- RevealMultiplex&#45;&gt;ContourIngressController -->
<g id="edge11" class="edge">
<title>RevealMultiplex&#45;&gt;ContourIngressController</title>
<path fill="none" stroke="black" d="M1813.95,-286.08C1804.33,-283.01 1794.17,-280.14 1784.5,-278.09 1605.3,-240.28 1392.59,-226.28 1264.48,-221.11"/>
<polygon fill="black" stroke="black" points="1264.39,-217.6 1254.26,-220.71 1264.11,-224.6 1264.39,-217.6"/>
<text text-anchor="middle" x="1741" y="-256.89" font-family="Times,serif" font-size="14.00">Serves</text>
</g>
<!-- KubePrometheus&#45;&gt;ContourIngressController -->
<g id="edge12" class="edge">
<title>KubePrometheus&#45;&gt;ContourIngressController</title>
<path fill="none" stroke="black" d="M1171.95,-481C1171.16,-451.99 1170.15,-391.28 1173.5,-340.09 1176.04,-301.3 1196.85,-289.22 1182.5,-253.09 1181.12,-249.63 1179.23,-246.31 1177.03,-243.19"/>
<polygon fill="black" stroke="black" points="1179.71,-240.95 1170.67,-235.43 1174.3,-245.38 1179.71,-240.95"/>
<text text-anchor="middle" x="1198" y="-343.89" font-family="Times,serif" font-size="14.00">Serves</text>
</g>
<!-- MetalLB -->
<g id="node17" class="node">
<title>MetalLB</title>
<polygon fill="none" stroke="black" points="944,-322.09 867,-322.09 867,-286.09 944,-286.09 944,-322.09"/>
<text text-anchor="middle" x="905.5" y="-300.39" font-family="Times,serif" font-size="14.00">MetalLB</text>
</g>
<!-- MetalLB&#45;&gt;PowerDNS -->
<g id="edge4" class="edge">
<title>MetalLB&#45;&gt;PowerDNS</title>
<path fill="none" stroke="black" d="M870.8,-285.98C864.28,-281.12 858.32,-275.18 854.5,-268.09 850.82,-261.26 849.58,-253.11 849.54,-245.39"/>
<polygon fill="black" stroke="black" points="853.04,-245.47 850.09,-235.29 846.05,-245.08 853.04,-245.47"/>
<text text-anchor="middle" x="895.5" y="-256.89" font-family="Times,serif" font-size="14.00">Provides IP</text>
</g>
<!-- MetalLB&#45;&gt;ContourIngressController -->
<g id="edge8" class="edge">
<title>MetalLB&#45;&gt;ContourIngressController</title>
<path fill="none" stroke="black" d="M923.69,-285.96C936.42,-274.92 954.33,-261.17 972.5,-253.09 991.9,-244.47 1013.43,-237.97 1034.61,-233.05"/>
<polygon fill="black" stroke="black" points="1035.62,-236.41 1044.63,-230.84 1034.11,-229.58 1035.62,-236.41"/>
<text text-anchor="middle" x="1013.5" y="-256.89" font-family="Times,serif" font-size="14.00">Provides IP</text>
</g>
<!-- Kubed -->
<g id="node18" class="node">
<title>Kubed</title>
<polygon fill="none" stroke="black" points="430.5,-409.09 368.5,-409.09 368.5,-373.09 430.5,-373.09 430.5,-409.09"/>
<text text-anchor="middle" x="399.5" y="-387.39" font-family="Times,serif" font-size="14.00">Kubed</text>
</g>
<!-- Kubed&#45;&gt;CertManager -->
<g id="edge19" class="edge">
<title>Kubed&#45;&gt;CertManager</title>
<path fill="none" stroke="black" d="M399.5,-372.89C399.5,-361.26 399.5,-345.64 399.5,-332.33"/>
<polygon fill="black" stroke="black" points="403,-332.27 399.5,-322.27 396,-332.27 403,-332.27"/>
<text text-anchor="middle" x="528" y="-343.89" font-family="Times,serif" font-size="14.00">Syncs TLS certs across namespaces</text>
</g>
<!-- Knative -->
<g id="node19" class="node">
<title>Knative</title>
<polygon fill="none" stroke="black" points="1099,-322.09 1028,-322.09 1028,-286.09 1099,-286.09 1099,-322.09"/>
<text text-anchor="middle" x="1063.5" y="-300.39" font-family="Times,serif" font-size="14.00">Knative</text>
</g>
<!-- Knative&#45;&gt;ContourIngressController -->
<g id="edge20" class="edge">
<title>Knative&#45;&gt;ContourIngressController</title>
<path fill="none" stroke="black" d="M1059.42,-285.92C1057.96,-275.55 1058.03,-262.55 1064.5,-253.09 1067.65,-248.48 1071.53,-244.48 1075.88,-241"/>
<polygon fill="black" stroke="black" points="1077.92,-243.85 1084.16,-235.3 1073.94,-238.09 1077.92,-243.85"/>
<text text-anchor="middle" x="1123.5" y="-256.89" font-family="Times,serif" font-size="14.00">Service gateway</text>
</g>
<!-- Registry -->
<g id="node20" class="node">
<title>Registry</title>
<polygon fill="none" stroke="black" points="2125,-322.09 1946,-322.09 1946,-286.09 2125,-286.09 2125,-322.09"/>
<text text-anchor="middle" x="2035.5" y="-300.39" font-family="Times,serif" font-size="14.00">Registry (Distribution)</text>
</g>
<!-- Registry&#45;&gt;ContourIngressController -->
<g id="edge9" class="edge">
<title>Registry&#45;&gt;ContourIngressController</title>
<path fill="none" stroke="black" d="M1972.72,-286.07C1961.06,-283.19 1948.95,-280.4 1937.5,-278.09 1863.5,-263.19 1844.6,-260.79 1769.5,-253.09 1593.86,-235.11 1389.2,-225.81 1264.54,-221.45"/>
<polygon fill="black" stroke="black" points="1264.33,-217.94 1254.22,-221.09 1264.09,-224.93 1264.33,-217.94"/>
<text text-anchor="middle" x="1907" y="-256.89" font-family="Times,serif" font-size="14.00">Serves</text>
</g>
<!-- Registry&#45;&gt;LocalPathProvisioner -->
<g id="edge17" class="edge">
<title>Registry&#45;&gt;LocalPathProvisioner</title>
<path fill="none" stroke="black" d="M2017.61,-285.75C1967.43,-237.1 1825.24,-99.22 1767.42,-43.16"/>
<polygon fill="black" stroke="black" points="1769.77,-40.57 1760.15,-36.12 1764.9,-45.59 1769.77,-40.57"/>
<text text-anchor="middle" x="1975" y="-169.89" font-family="Times,serif" font-size="14.00">Provisions storage</text>
</g>
</g>
</svg>
