<?xml version="1.0" encoding="UTF-8" standalone="no"?>
<!DOCTYPE svg PUBLIC "-//W3C//DTD SVG 1.1//EN"
 "http://www.w3.org/Graphics/SVG/1.1/DTD/svg11.dtd">
<!-- Generated by graphviz version 2.43.0 (0)
 -->
<!-- Title: PairInstance Pages: 1 -->
<svg width="1679pt" height="635pt"
 viewBox="0.00 0.00 1678.50 635.09" xmlns="http://www.w3.org/2000/svg" xmlns:xlink="http://www.w3.org/1999/xlink">
<g id="graph0" class="graph" transform="scale(1 1) rotate(0) translate(4 631.09)">
<title>PairInstance</title>
<polygon fill="white" stroke="transparent" points="-4,4 -4,-631.09 1674.5,-631.09 1674.5,4 -4,4"/>
<text text-anchor="middle" x="835.25" y="-611.89" font-family="Times,serif" font-size="14.00">Pair Instance</text>
<g id="clust1" class="cluster">
<title>cluster0</title>
<polygon fill="none" stroke="black" points="1258.5,-278.09 1258.5,-440.09 1502.5,-440.09 1502.5,-278.09 1258.5,-278.09"/>
<text text-anchor="middle" x="1380.5" y="-424.89" font-family="Times,serif" font-size="14.00">Environment</text>
</g>
<!-- Environment -->
<g id="node1" class="node">
<title>Environment</title>
<ellipse fill="none" stroke="black" cx="1423.5" cy="-391.09" rx="71.49" ry="18"/>
<text text-anchor="middle" x="1423.5" y="-387.39" font-family="Times,serif" font-size="14.00">Environment</text>
</g>
<!-- EnvironmentExporter -->
<g id="node2" class="node">
<title>EnvironmentExporter</title>
<ellipse fill="none" stroke="black" cx="1380.5" cy="-304.09" rx="114.28" ry="18"/>
<text text-anchor="middle" x="1380.5" y="-300.39" font-family="Times,serif" font-size="14.00">Environment exporter</text>
</g>
<!-- Environment&#45;&gt;EnvironmentExporter -->
<g id="edge1" class="edge">
<title>Environment&#45;&gt;EnvironmentExporter</title>
<path fill="none" stroke="black" d="M1473.03,-371.52C1487.57,-363.17 1497.46,-352.42 1488.5,-340.09 1481.02,-329.81 1470.46,-322.49 1458.84,-317.29"/>
<polygon fill="black" stroke="black" points="1471.33,-368.46 1464.04,-376.15 1474.53,-374.68 1471.33,-368.46"/>
</g>
<!-- RevealMultiplex -->
<g id="node12" class="node">
<title>RevealMultiplex</title>
<polygon fill="none" stroke="black" points="1650,-322.09 1513,-322.09 1513,-286.09 1650,-286.09 1650,-322.09"/>
<text text-anchor="middle" x="1581.5" y="-300.39" font-family="Times,serif" font-size="14.00">Reveal Multiplex</text>
</g>
<!-- Environment&#45;&gt;RevealMultiplex -->
<g id="edge16" class="edge">
<title>Environment&#45;&gt;RevealMultiplex</title>
<path fill="none" stroke="black" d="M1455.53,-374.84C1467.81,-368.86 1481.89,-361.82 1494.5,-355.09 1510.95,-346.33 1528.85,-336.15 1544.11,-327.28"/>
<polygon fill="black" stroke="black" points="1545.89,-330.29 1552.76,-322.23 1542.36,-324.25 1545.89,-330.29"/>
<text text-anchor="middle" x="1595.5" y="-343.89" font-family="Times,serif" font-size="14.00">Drives presentations</text>
</g>
<!-- EnvironmentExposer -->
<g id="node3" class="node">
<title>EnvironmentExposer</title>
<polygon fill="none" stroke="black" points="1143.5,-409.09 973.5,-409.09 973.5,-373.09 1143.5,-373.09 1143.5,-409.09"/>
<text text-anchor="middle" x="1058.5" y="-387.39" font-family="Times,serif" font-size="14.00">Environment exposer</text>
</g>
<!-- EnvironmentExposer&#45;&gt;EnvironmentExporter -->
<g id="edge2" class="edge">
<title>EnvironmentExposer&#45;&gt;EnvironmentExporter</title>
<path fill="none" stroke="black" d="M1041.59,-372.85C1033.42,-362.45 1027.04,-349.45 1035.5,-340.09 1050.64,-323.34 1166.53,-314.2 1259.88,-309.51"/>
<polygon fill="black" stroke="black" points="1260.17,-313 1269.99,-309.01 1259.83,-306.01 1260.17,-313"/>
<text text-anchor="middle" x="1260" y="-343.89" font-family="Times,serif" font-size="14.00">Create Service and Ingress resources from listening processes</text>
</g>
<!-- PowerDNS -->
<g id="node4" class="node">
<title>PowerDNS</title>
<polygon fill="none" stroke="black" points="336.5,-235.09 242.5,-235.09 242.5,-199.09 336.5,-199.09 336.5,-235.09"/>
<text text-anchor="middle" x="289.5" y="-213.39" font-family="Times,serif" font-size="14.00">PowerDNS</text>
</g>
<!-- PowerDNSDB -->
<g id="node5" class="node">
<title>PowerDNSDB</title>
<polygon fill="none" stroke="black" points="349.5,-135.55 229.5,-135.55 229.5,-99.55 349.5,-99.55 349.5,-135.55"/>
<text text-anchor="middle" x="289.5" y="-113.85" font-family="Times,serif" font-size="14.00">PowerDNS DB</text>
</g>
<!-- PowerDNS&#45;&gt;PowerDNSDB -->
<g id="edge5" class="edge">
<title>PowerDNS&#45;&gt;PowerDNSDB</title>
<path fill="none" stroke="black" d="M289.5,-198.66C289.5,-184.09 289.5,-163.06 289.5,-146.2"/>
<polygon fill="black" stroke="black" points="293,-145.84 289.5,-135.84 286,-145.84 293,-145.84"/>
</g>
<!-- Web -->
<g id="node16" class="node">
<title>Web</title>
<ellipse fill="none" stroke="black" cx="516.5" cy="-117.55" rx="30.59" ry="30.59"/>
<polyline fill="none" stroke="black" points="536.7,-140.46 496.3,-140.46 "/>
<polyline fill="none" stroke="black" points="536.7,-94.64 496.3,-94.64 "/>
<text text-anchor="middle" x="516.5" y="-113.85" font-family="Times,serif" font-size="14.00">Web</text>
</g>
<!-- PowerDNS&#45;&gt;Web -->
<g id="edge18" class="edge">
<title>PowerDNS&#45;&gt;Web</title>
<path fill="none" stroke="black" d="M329.3,-198.99C371.56,-180.83 437.84,-152.35 479.14,-134.6"/>
<polygon fill="black" stroke="black" points="480.76,-137.71 488.57,-130.55 478,-131.28 480.76,-137.71"/>
<text text-anchor="middle" x="500" y="-169.89" font-family="Times,serif" font-size="14.00">Serves public DNS records</text>
</g>
<!-- LocalPathProvisioner -->
<g id="node11" class="node">
<title>LocalPathProvisioner</title>
<polygon fill="none" stroke="black" points="375.5,-36 203.5,-36 203.5,0 375.5,0 375.5,-36"/>
<text text-anchor="middle" x="289.5" y="-14.3" font-family="Times,serif" font-size="14.00">local&#45;path&#45;provisioner</text>
</g>
<!-- PowerDNSDB&#45;&gt;LocalPathProvisioner -->
<g id="edge15" class="edge">
<title>PowerDNSDB&#45;&gt;LocalPathProvisioner</title>
<path fill="none" stroke="black" d="M289.5,-99.11C289.5,-84.54 289.5,-63.51 289.5,-46.65"/>
<polygon fill="black" stroke="black" points="293,-46.29 289.5,-36.29 286,-46.29 293,-46.29"/>
<text text-anchor="middle" x="356" y="-57.8" font-family="Times,serif" font-size="14.00">Provisions storage</text>
</g>
<!-- ExternalDNS -->
<g id="node6" class="node">
<title>ExternalDNS</title>
<polygon fill="none" stroke="black" points="111,-322.09 0,-322.09 0,-286.09 111,-286.09 111,-322.09"/>
<text text-anchor="middle" x="55.5" y="-300.39" font-family="Times,serif" font-size="14.00">ExternalDNS</text>
</g>
<!-- ExternalDNS&#45;&gt;PowerDNS -->
<g id="edge6" class="edge">
<title>ExternalDNS&#45;&gt;PowerDNS</title>
<path fill="none" stroke="black" d="M57.29,-285.72C59.37,-274.72 63.85,-261.11 73.5,-253.09 97.03,-233.56 176.38,-224.75 232.04,-220.91"/>
<polygon fill="black" stroke="black" points="232.39,-224.39 242.14,-220.25 231.93,-217.41 232.39,-224.39"/>
<text text-anchor="middle" x="141.5" y="-256.89" font-family="Times,serif" font-size="14.00">Configures records</text>
</g>
<!-- CertManager -->
<g id="node7" class="node">
<title>CertManager</title>
<polygon fill="none" stroke="black" points="340.5,-322.09 224.5,-322.09 224.5,-286.09 340.5,-286.09 340.5,-322.09"/>
<text text-anchor="middle" x="282.5" y="-300.39" font-family="Times,serif" font-size="14.00">Cert&#45;Manager</text>
</g>
<!-- CertManager&#45;&gt;PowerDNS -->
<g id="edge7" class="edge">
<title>CertManager&#45;&gt;PowerDNS</title>
<path fill="none" stroke="black" d="M233.65,-286.02C218.13,-277.71 206.96,-266.58 215.5,-253.09 220.04,-245.93 226.48,-240.21 233.69,-235.64"/>
<polygon fill="black" stroke="black" points="235.39,-238.7 242.44,-230.79 231.99,-232.57 235.39,-238.7"/>
<text text-anchor="middle" x="272.5" y="-256.89" font-family="Times,serif" font-size="14.00">Validates dns01</text>
</g>
<!-- NginxIngressController -->
<g id="node8" class="node">
<title>NginxIngressController</title>
<polygon fill="none" stroke="black" points="911.5,-235.09 709.5,-235.09 709.5,-199.09 911.5,-199.09 911.5,-235.09"/>
<text text-anchor="middle" x="810.5" y="-213.39" font-family="Times,serif" font-size="14.00">NGINX Ingress Controller</text>
</g>
<!-- CertManager&#45;&gt;NginxIngressController -->
<g id="edge11" class="edge">
<title>CertManager&#45;&gt;NginxIngressController</title>
<path fill="none" stroke="black" d="M306.03,-285.78C313.56,-280.18 321.91,-273.91 329.5,-268.09 338.04,-261.55 338.48,-257 348.5,-253.09 410.1,-229.06 583.14,-221.46 699.07,-219.1"/>
<polygon fill="black" stroke="black" points="699.47,-222.59 709.4,-218.9 699.34,-215.59 699.47,-222.59"/>
<text text-anchor="middle" x="490" y="-256.89" font-family="Times,serif" font-size="14.00">Provides TLS for Ingresses served here</text>
</g>
<!-- NginxIngressController&#45;&gt;Web -->
<g id="edge19" class="edge">
<title>NginxIngressController&#45;&gt;Web</title>
<path fill="none" stroke="black" d="M758.95,-198.99C700.63,-179.64 606.98,-148.57 554.78,-131.25"/>
<polygon fill="black" stroke="black" points="555.82,-127.91 545.23,-128.08 553.62,-134.55 555.82,-127.91"/>
<text text-anchor="middle" x="771" y="-169.89" font-family="Times,serif" font-size="14.00">Serves public traffic</text>
</g>
<!-- GoHttpServer -->
<g id="node9" class="node">
<title>GoHttpServer</title>
<polygon fill="none" stroke="black" points="1021,-517.09 888,-517.09 888,-481.09 1021,-481.09 1021,-517.09"/>
<text text-anchor="middle" x="954.5" y="-495.39" font-family="Times,serif" font-size="14.00">Go&#45;HTTP&#45;Server</text>
</g>
<!-- GoHttpServer&#45;&gt;Environment -->
<g id="edge3" class="edge">
<title>GoHttpServer&#45;&gt;Environment</title>
<path fill="none" stroke="black" d="M1021.2,-483.02C1112.27,-462.44 1274.26,-425.83 1362.34,-405.92"/>
<polygon fill="black" stroke="black" points="1363.21,-409.31 1372.19,-403.69 1361.66,-402.48 1363.21,-409.31"/>
<text text-anchor="middle" x="1284.5" y="-451.89" font-family="Times,serif" font-size="14.00">Serve the ~/public_html folder</text>
</g>
<!-- GoHttpServer&#45;&gt;NginxIngressController -->
<g id="edge9" class="edge">
<title>GoHttpServer&#45;&gt;NginxIngressController</title>
<path fill="none" stroke="black" d="M953.36,-481C949.63,-437.66 934.2,-322.01 873.5,-253.09 869.53,-248.58 864.83,-244.53 859.81,-240.93"/>
<polygon fill="black" stroke="black" points="861.43,-237.81 851.14,-235.28 857.61,-243.67 861.43,-237.81"/>
<text text-anchor="middle" x="953" y="-343.89" font-family="Times,serif" font-size="14.00">Serves</text>
</g>
<!-- HelmOperator -->
<g id="node10" class="node">
<title>HelmOperator</title>
<polygon fill="none" stroke="black" points="1016.5,-604.09 892.5,-604.09 892.5,-568.09 1016.5,-568.09 1016.5,-604.09"/>
<text text-anchor="middle" x="954.5" y="-582.39" font-family="Times,serif" font-size="14.00">Helm Operator</text>
</g>
<!-- HelmOperator&#45;&gt;NginxIngressController -->
<g id="edge12" class="edge">
<title>HelmOperator&#45;&gt;NginxIngressController</title>
<path fill="none" stroke="black" d="M914.49,-568.09C888.52,-554.08 859.5,-531.41 859.5,-500.09 859.5,-500.09 859.5,-500.09 859.5,-303.09 859.5,-280.02 857.15,-273.01 845.5,-253.09 843.35,-249.42 840.73,-245.86 837.89,-242.51"/>
<polygon fill="black" stroke="black" points="840.37,-240.04 831,-235.1 835.25,-244.81 840.37,-240.04"/>
<text text-anchor="middle" x="888.5" y="-387.39" font-family="Times,serif" font-size="14.00">Deploys</text>
</g>
<!-- HelmOperator&#45;&gt;GoHttpServer -->
<g id="edge14" class="edge">
<title>HelmOperator&#45;&gt;GoHttpServer</title>
<path fill="none" stroke="black" d="M954.5,-567.89C954.5,-556.26 954.5,-540.64 954.5,-527.33"/>
<polygon fill="black" stroke="black" points="958,-527.27 954.5,-517.27 951,-527.27 958,-527.27"/>
<text text-anchor="middle" x="983.5" y="-538.89" font-family="Times,serif" font-size="14.00">Deploys</text>
</g>
<!-- KubePrometheus -->
<g id="node13" class="node">
<title>KubePrometheus</title>
<polygon fill="none" stroke="black" points="1262,-517.09 1039,-517.09 1039,-481.09 1262,-481.09 1262,-517.09"/>
<text text-anchor="middle" x="1150.5" y="-495.39" font-family="Times,serif" font-size="14.00">Prometheus + Grafana stack</text>
</g>
<!-- HelmOperator&#45;&gt;KubePrometheus -->
<g id="edge13" class="edge">
<title>HelmOperator&#45;&gt;KubePrometheus</title>
<path fill="none" stroke="black" d="M994.16,-567.89C1025.22,-554.43 1068.55,-535.63 1101.73,-521.25"/>
<polygon fill="black" stroke="black" points="1103.45,-524.31 1111.23,-517.12 1100.66,-517.89 1103.45,-524.31"/>
<text text-anchor="middle" x="1092.5" y="-538.89" font-family="Times,serif" font-size="14.00">Deploys</text>
</g>
<!-- RevealMultiplex&#45;&gt;NginxIngressController -->
<g id="edge10" class="edge">
<title>RevealMultiplex&#45;&gt;NginxIngressController</title>
<path fill="none" stroke="black" d="M1535.96,-286.02C1526.34,-282.95 1516.18,-280.1 1506.5,-278.09 1303,-236.02 1060.13,-223.39 921.75,-219.64"/>
<polygon fill="black" stroke="black" points="921.65,-216.13 911.56,-219.37 921.46,-223.13 921.65,-216.13"/>
<text text-anchor="middle" x="1475" y="-256.89" font-family="Times,serif" font-size="14.00">Serves</text>
</g>
<!-- MetalLB -->
<g id="node14" class="node">
<title>MetalLB</title>
<polygon fill="none" stroke="black" points="748,-322.09 671,-322.09 671,-286.09 748,-286.09 748,-322.09"/>
<text text-anchor="middle" x="709.5" y="-300.39" font-family="Times,serif" font-size="14.00">MetalLB</text>
</g>
<!-- MetalLB&#45;&gt;PowerDNS -->
<g id="edge4" class="edge">
<title>MetalLB&#45;&gt;PowerDNS</title>
<path fill="none" stroke="black" d="M685.53,-286.04C666.09,-272.35 641.04,-255.1 635.5,-253.09 583.87,-234.39 430.9,-224.6 346.69,-220.49"/>
<polygon fill="black" stroke="black" points="346.68,-216.99 336.52,-220.01 346.35,-223.98 346.68,-216.99"/>
<text text-anchor="middle" x="700.5" y="-256.89" font-family="Times,serif" font-size="14.00">Provides IP</text>
</g>
<!-- MetalLB&#45;&gt;NginxIngressController -->
<g id="edge8" class="edge">
<title>MetalLB&#45;&gt;NginxIngressController</title>
<path fill="none" stroke="black" d="M727.07,-285.94C737.42,-276.05 750.92,-263.55 763.5,-253.09 768.11,-249.26 773.09,-245.34 778.02,-241.57"/>
<polygon fill="black" stroke="black" points="780.32,-244.22 786.21,-235.42 776.11,-238.63 780.32,-244.22"/>
<text text-anchor="middle" x="804.5" y="-256.89" font-family="Times,serif" font-size="14.00">Provides IP</text>
</g>
<!-- Kubed -->
<g id="node15" class="node">
<title>Kubed</title>
<polygon fill="none" stroke="black" points="313.5,-409.09 251.5,-409.09 251.5,-373.09 313.5,-373.09 313.5,-409.09"/>
<text text-anchor="middle" x="282.5" y="-387.39" font-family="Times,serif" font-size="14.00">Kubed</text>
</g>
<!-- Kubed&#45;&gt;CertManager -->
<g id="edge17" class="edge">
<title>Kubed&#45;&gt;CertManager</title>
<path fill="none" stroke="black" d="M282.5,-372.89C282.5,-361.26 282.5,-345.64 282.5,-332.33"/>
<polygon fill="black" stroke="black" points="286,-332.27 282.5,-322.27 279,-332.27 286,-332.27"/>
<text text-anchor="middle" x="411" y="-343.89" font-family="Times,serif" font-size="14.00">Syncs TLS certs across namespaces</text>
</g>
</g>
</svg>
